<?xml version="1.0" encoding="UTF-8"?>
<svg xmlns="http://www.w3.org/2000/svg" version="1.1" viewBox="0 0 1920 1080">

  <path fill="#FFFFFF" d="M515.96,388.67c-83.75,0-151.89,68.14-151.89,151.89s68.29,151.89,152.24,151.89,151.55-68.14,151.55-151.89-68.14-151.89-151.89-151.89Z"/>
  <path fill="#FFFFFF" d="M1441.98,753.56c-5.92-4.28-13.21-7.92-21.11-10.55-1.65-.51-3.72-1.11-5.82-1.72-3.55-1.03-7.22-2.1-8.91-2.73-.5-.19-1.1-.38-1.76-.58-2.48-.78-5.87-1.84-5.87-3.85,0-1.18,0-3.65,8.38-3.65,10.32.67,20.41,4.7,28.41,11.36l1.42,1.18,17-31.36-1.04-.78c-12.88-9.75-28.87-15.12-45-15.12-15.26,0-28.44,3.92-37.14,11.04-9.54,8.06-15,19.4-15,31.02-.75,10.77,3.72,21.04,11.94,27.47,4.95,3.89,10.95,7.07,17.25,9.17,2.49,1,8.56,2.98,18.03,5.9,4.1,1.26,7.88,2.75,7.88,5.1,0,3.39-5.96,3.65-7.65,3.66-11.65-1-23.1-5.65-32.24-13.1l-1.37-1.11-19.48,32.96,1.03.82c13.68,10.87,30.89,16.86,48.47,16.86,15.44,0,27.69-3.6,37.43-10.99l.03-.02c9.98-7.92,16.34-19.85,17.45-32.82.37-11.1-4.09-21.34-12.33-28.14Z"/>
  <polygon fill="#FFFFFF" points="1534.64 741.22 1503.92 741.22 1503.92 696.44 1460.58 696.44 1460.58 823.12 1503.57 823.12 1503.57 777.31 1534.29 777.31 1534.29 823.12 1578.31 823.12 1578.31 696.44 1534.64 696.44 1534.64 741.22"/>
  <path fill="#FFFFFF" d="M1655.32,694.37c-41.08,0-68.68,26.36-68.68,65.58s27.6,65.24,68.68,65.24,68.68-26.36,68.68-65.58-27.6-65.24-68.68-65.24ZM1679.98,759.26c0,16.66-9.68,27.42-24.66,27.42s-25-10.76-25-27.42,9.81-27.41,25-27.41,24.66,10.76,24.66,27.41Z"/>
  <polygon fill="#FFFFFF" points="1861.45 696.44 1847.52 759.79 1833.58 696.44 1790.84 696.44 1776.91 759.79 1762.97 696.44 1717.73 696.44 1753.72 823.12 1797.05 823.12 1812.38 758.27 1827.72 823.12 1871.39 823.12 1907.03 696.44 1861.45 696.44"/>
  <polygon fill="#FFFFFF" points="52.22 366.75 91.42 366.75 91.42 284.78 117.25 284.78 117.25 253.51 26.39 253.51 26.39 284.78 52.22 284.78 52.22 366.75"/>
  <polygon fill="#FFFFFF" points="163.06 326.11 189.99 326.11 189.99 366.75 229.19 366.75 229.19 253.51 189.99 253.51 189.99 293.46 163.06 293.46 163.06 253.51 123.86 253.51 123.86 366.75 163.06 366.75 163.06 326.11"/>
  <polygon fill="#FFFFFF" points="324.8 365.24 325.97 365.24 325.97 334.79 282.23 334.79 282.23 325.08 322.18 325.08 322.18 293.81 282.23 293.81 282.23 284.78 324.59 284.78 324.59 253.51 243.38 253.51 243.38 366.75 324.8 366.75 324.8 365.24"/>
  <polygon fill="#FFFFFF" points="216.14 397.13 182.22 541.15 148.62 397.13 30.61 397.13 14.59 674.67 105.85 674.67 108.74 528.49 142.08 674.67 222.34 674.67 255.68 528.49 258.56 674.67 349.83 674.67 333.81 397.13 216.14 397.13"/>
  <path fill="#FFFFFF" d="M1112.71,502.32c0,13.62,1.01,32.39,1.61,42.52l-76.67-147.71h-99.91v276.9l-61.84-104.69c29.56-17.45,44.78-45.43,45.24-83.19.35-27.42-12.5-53.13-34.39-68.76-19.22-13.82-44.78-20.26-80.45-20.26h-121.03v277.54h92.93v-91.62h9.24l43.74,91.62h106.94l-.2-.34h90.34v-104.85c0-13.79-1.03-32.83-1.63-42.87l80.42,147.27.43.79h94.58v-1.52h1.17v-275.68h-90.52v104.84ZM817.82,507.99c-4.14,3.01-10.56,4.53-19.09,4.53h-21.22v-44.84h21.22c8.71,0,15.11,1.62,19.02,4.82l.23.16c6.32,3.47,9.84,10.17,9.21,17.75.63,6.9-3.09,13.93-9.37,17.58Z"/>
  <rect fill="#FFFFFF" x="1230.51" y="397.13" width="92.93" height="277.54"/>
  <path fill="#FFFFFF" d="M1440.89,569.49c0-13.78-1.03-32.83-1.64-42.87l80.42,147.27.43.79h94.58v-1.52h1.17v-275.68h-90.52v104.84c0,13.62,1.01,32.39,1.62,42.52l-76.68-147.71h-99.91v277.2h90.52v-104.85Z"/>
  <path fill="#FFFFFF" d="M1777.59,679.15c72.64,0,105.33-29.68,126.95-49.32l2-1.81v-122.05h-132.54v69.51h42.02v17.94c-1.39,1.59-9.35,8.99-36.37,8.99-33.6,0-55.31-25.9-55.31-65.99s21.71-65.99,55.34-65.99c20.79-.33,40.54,8.15,54.67,23.28l.98,1.05,61.95-51.93-1.17-1.17c-.57-.57-1.26-1.3-2.08-2.17-10.75-11.41-43.45-46.15-114.38-46.15-40.2,0-76.82,12.22-103.1,34.41-29.98,25.32-45.83,62.77-45.83,108.32,0,98.83,73.76,143.08,146.86,143.08Z"/>
</svg>
