<svg xmlns="http://www.w3.org/2000/svg" viewBox="0 0 36 56">
	<path fill="#fff" d="m17.9799 22.6562c-.02-.04-.04-.2002-.04-.3604 0-.9209.4604-1.8418.981-2.4229.6807-.7803 1.7422-1.3613 2.7031-1.3809.0391.1201.0391.2197.0391.3799 0 .9014-.4199 1.8418-1 2.5029-.6016.7803-1.582 1.3008-2.3828 1.3008-.1602 0-.2402-.0195-.3003-.0195zm4.9849 5.4854c0-2.3428 1.8623-3.3838 1.9219-3.4639-1.2012-1.7412-3.043-1.7812-3.5439-1.7812-1.3809 0-2.4824.8008-3.2227.8008-.7207 0-1.7417-.7607-2.9429-.7607-2.2622 0-4.5444 1.8613-4.5444 5.3848 0 2.1826.8208 4.5049 1.9219 6.0059.8809 1.2617 1.6616 2.3223 2.8027 2.3223 1.1211 0 1.5815-.7607 3.0029-.7607s1.7012.7412 2.9824.7412c1.2217 0 2.043-1.1211 2.7832-2.2822.8613-1.2412 1.2812-2.4824 1.2812-2.543-.0605-.0195-2.4424-1.0205-2.4424-3.6631zm13.0353-11.1416v24c0 2.7614-2.2386 5-5 5h-26.0001c-2.7614 0-5-2.2386-5-5v-24c0-2.7614 2.2386-5 5-5h5c0-4.4141 3.5889-8 8-8s8 3.5859 8 8h5c2.7614 0 5 2.2386 5 5zm-24-5h12c0-3.3115-2.6914-6-6-6s-6 2.6885-6 6zm22 5c0-1.6542-1.3458-3-3-3h-26.0001c-1.6542 0-3 1.3458-3 3v24c0 1.6542 1.3458 3 3 3h26c1.6542 0 3-1.3458 3-3v-24z"/>
</svg>