<svg xmlns="http://www.w3.org/2000/svg" viewBox="0 0 40 56">
    <path fill="#000" d="m19.966 19.6333c0-.0511-.017-.17-.017-.2896.0403-.7875.3459-1.5381.867-2.1298.577-.6856 1.4023-1.1145 2.295-1.1927.0151.1015.0208.2041.017.3066-.019.8032-.3062 1.577-.816 2.198-.5237.651-1.2923 1.0577-2.125 1.1246-.085 0-.153-.0171-.221-.0171zm4.318 4.7366c.0117-1.2172.6387-2.3458 1.666-2.9987-.7026-1.007-1.8667-1.5904-3.094-1.5505-1.173 0-2.125.7156-2.754.7156-.646 0-1.496-.6815-2.55-.6815-1.938 0-3.927 1.6191-3.927 4.6685.0395 1.852.6056 3.6546 1.632 5.1967.782 1.1074 1.462 1.9935 2.448 1.9935.969 0 1.394-.6475 2.584-.6475 1.241 0 1.496.6305 2.567.6305 1.0541 0 1.785-.9713 2.448-1.9254.4812-.6777.8434-1.4326 1.071-2.2321-1.2726-.5377-2.0973-1.7877-2.091-3.1691zm13.966.4066c0 2.115-.3647 4.1581-1.093 6.1294-.7283 1.9723-1.7835 3.7868-3.1655 5.4441-1.3829 1.6583-3.0339 3.101-4.9529 4.3289-1.4985.9415-2.7549 1.7911-3.7693 2.5479-1.0143.7578-1.8383 1.5355-2.471 2.3331-.6337.7987-1.1339 1.7361-1.5015 2.8144-.273.7503-.7084 1.1257-1.3072 1.1257-.5999 0-1.0283-.3754-1.2874-1.1257-.3666-1.0782-.8708-2.0157-1.5105-2.8144-.6406-.7977-1.4647-1.5754-2.472-2.3331-1.0083-.7568-2.2607-1.6064-3.7583-2.5479-1.934-1.228-3.5879-2.6706-4.9629-4.3289-1.376-1.6573-2.4282-3.4718-3.1565-5.4441-.7283-1.9713-1.092-4.0144-1.092-6.1294 0-2.5379.4723-4.9085 1.4188-7.1119s2.2578-4.1447 3.9317-5.8229c1.6759-1.6783 3.6118-2.9881 5.8118-3.9296 2.199-.9415 4.5574-1.4122 7.0772-1.4122 2.5328 0 4.8981.4707 7.0981 1.4122 2.199.9415 4.1359 2.2513 5.8108 3.9296 1.6749 1.6782 2.9851 3.6196 3.9317 5.8229.9465 2.2034 1.4198 4.574 1.4198 7.1119zm-2.2 0c0-2.2257-.4176-4.3263-1.2412-6.2435-.8322-1.9372-1.9988-3.6656-3.4675-5.1372-1.4678-1.4707-3.1902-2.6352-5.1195-3.4612-1.9142-.8192-4.0112-1.2346-6.2322-1.2346-2.2081 0-4.2979.4153-6.2114 1.2346-1.9284.8252-3.6512 1.9898-5.121 3.4617-1.4687 1.4725-2.6355 3.201-3.467 5.1367-.8229 1.9156-1.2402 4.0163-1.2402 6.2435 0 1.845.3215 3.6506.9556 5.3669.6384 1.7286 1.5755 3.3439 2.7855 4.8012 1.2224 1.4742 2.7191 2.7783 4.4495 3.877 1.5286.9609 2.8434 1.8528 3.8997 2.6455 1.1507.8656 2.1145 1.7786 2.8666 2.7151.4084.5099.7728 1.0647 1.0911 1.6602.3138-.5894.6742-1.1426 1.0768-1.65.7469-.9418 1.7153-1.8598 2.8777-2.7283 1.0603-.7911 2.3773-1.6818 3.9156-2.6482 1.7053-1.0913 3.2022-2.3984 4.4337-3.8751 1.2145-1.4564 2.1536-3.0704 2.7913-4.7972.6349-1.7184.9568-3.5241.9568-5.3673z"/>
</svg>
