<?xml version="1.0" encoding="utf-8"?>
<svg version="1.1" xmlns="http://www.w3.org/2000/svg" xmlns:xlink="http://www.w3.org/1999/xlink" x="0px" y="0px"
	 width="211.2899933px" height="80.1699982px" viewBox="0 0 211.2899933 80.1699982"
	 enable-background="new 0 0 211.2899933 80.1699982" xml:space="preserve">
  <path fill="#FFFFFF" d="M188.6418915,78.5248032h-10.0945892V55.7998009h-21.6520996v-9.9894028h21.6520996V23.0841999h10.0945892
    v22.7261982h21.651001v9.9894028h-21.651001V78.5248032z"/>
  <path fill="#FFFFFF" d="M89.4595947,9.8467999v13.2296009h10.6369019v8.7314987H89.4595947v31.1156006
    c0,4.8154984,2.1172028,7.0382004,6.7735062,7.0382004c1.164093,0,3.0683975-0.1582031,3.8106079-0.2647018v8.7843018
    c-1.2705078,0.2647018-3.8106079,0.4766006-6.2979126,0.4766006c-11.006897,0-15.2930908-4.2334976-15.2930908-14.9230042
    V31.8078995h-8.1495056v-8.7314987h8.1495056V9.8467999H89.4595947z"/>
  <path fill="#FFFFFF" d="M137.3240967,78.5246964h-11.6800995l-19.645401-55.440197h11.6271973l13.779007,44.5528984h0.2641907
    l13.779007-44.5528984H156.8638L137.3240967,78.5246964z"/>
  <path fill="#FFFFFF" d="M47.8960991,19.1287994c-6.5181999-0.4821987-12.0480995,3.6408005-15.1334991,3.6408005
    c-3.1302013,0-7.9561996-3.5368004-13.0736008-3.4400997c-6.7193995,0.0984001-12.912199,3.9099007-16.3769989,9.9260006
    C-3.6669998,41.3694,1.5304999,59.3196983,8.3282995,69.1495972c3.3253002,4.8033066,7.2912998,10.2161026,12.5004072,10.0190048
    c5.0140934-0.197403,6.9111919-3.243103,12.972002-3.243103c6.0571899,0,7.7660904,3.243103,13.0682907,3.1460037
    c5.3969994-0.1003036,8.8163986-4.9028015,12.1172981-9.7327042c3.8197021-5.5750999,5.3892975-10.9732971,5.4824982-11.2585983
    c-0.1194992-0.0452995-10.5201988-4.0357018-10.6241989-16.0186996
    c-0.0938911-10.0184021,8.1774025-14.8341007,8.5535011-15.0659008
    C57.7028999,20.0806007,50.450798,19.3181992,47.8960991,19.1287994z"/>
  <path fill="#FFFFFF" d="M43.8740997,12.6396999C46.642498,9.2939997,48.5049973,4.6345,47.9921989,0
    c-3.9844017,0.1581-8.8031998,2.654-11.6609993,5.9976001c-2.5592003,2.9619002-4.8066998,7.7057004-4.1964912,12.2455997
    C36.5757065,18.5862999,41.1080971,15.9875002,43.8740997,12.6396999z"/>
</svg>
