<svg xmlns="http://www.w3.org/2000/svg" width="55" height="56"><path fill="none" d="M0 0H55V56H0z"/><path d="M18.29 45.114c-.324 1.295-.203 2.714-.29 3.078-.12.528-.546.865-1.157 1.036-1.026.286-3.848.388-5.848.388s-4.787-.102-5.813-.388c-.612-.171-1.143-.473-1.263-1.002-.232-1.02-.101-2.083-.283-3.133-.365-2.095-1.072-2.752-2.256-3.735a3.947 3.947 0 0 1-.852-.97h3.26V20.838l-3.266.005a3.97 3.97 0 0 1 .784-.952c.051-.046.461-.458.461-.458s1.488-1.232 1.883-4.019c.098-.69.184-1.89.299-2.376.119-.528.545-.865 1.158-1.036 1.026-.287 3.888-.387 5.888-.387s4.518.213 5.45.334c.846.11 1.505.468 1.683 1.27.2.903.177 1.831.34 2.738-.317.16-.619.345-.91.544-.145-.591-.197-1.171-.241-1.732-.037-.482-.073-.938-.17-1.372-.037-.17-.1-.456-.844-.552a50.892 50.892 0 0 0-5.308-.325c-2.52 0-4.873.145-5.593.347-.421.118-.457.277-.474.353-.06.254-.12.822-.172 1.322-.038.36-.075.713-.114.987-.358 2.529-1.563 3.947-2.023 4.406l12.108-.016a7.944 7.944 0 0 0-.33.904l-9.608.014v19.55h9.621c.095.309.204.612.334.904H2.748c.932.866 1.547 1.772 1.875 3.66.095.542.113 1.066.13 1.572.02.539.038 1.047.146 1.52.023.1.255.228.578.32.732.203 3 .347 5.518.347 2.496 0 4.83-.145 5.552-.347.42-.118.457-.278.474-.354.01-.067.017-.32.02-.524.018-.753.046-1.873.374-2.92.279.2.57.384.874.548zm21.654-1.945h2a.5.5 0 0 0 0-1h-1.537c-.2.334-.421.654-.667.954.063.029.13.046.204.046zm2-23.912h-1.391a8.047 8.047 0 0 0-.649-.992c.014-.001.026-.008.04-.008h2a.5.5 0 0 1 0 1zm6.126 0a.5.5 0 0 1 0-1h2a.5.5 0 1 1 0 1h-2zm-4.063 0a.5.5 0 0 1 0-1h2a.5.5 0 0 1 0 1h-2zm0 23.912a.5.5 0 0 1 0-1h2a.5.5 0 0 1 0 1h-2zm4.063 0a.5.5 0 0 1 0-1h2a.5.5 0 1 1 0 1h-2zm3.647-2.73l2.761.008c0 2.77-3.141 4.077-3.141 4.077-.055 1.678-.117 2.96-.163 3.278-.104.739-.498 1.29-1.03 1.53-.428.192-2.587.284-4.822.284-2.433 0-4.955-.11-5.42-.319-.532-.24-.926-.598-1.03-1.338-.046-.318-.153-3.074-.164-3.435 0 0-.106-.044-.277-.131.26-.202.507-.42.74-.651l.419.172h10.865l-.03.89H39.618c.031.843.112 2.769.145 3.03.048.343.162.487.509.643.282.09 2.111.24 5.05.24 2.772 0 4.22-.134 4.482-.218.231-.106.422-.418.479-.823.033-.229.093-1.298.154-3.18l.019-.58.535-.223c.02-.008 1.868-.809 2.428-2.35l-12.56-.038c.13-.29.24-.592.335-.9l9.522.03V20.833l-9.512-.03a7.97 7.97 0 0 0-.334-.9l8.898.027h1.806v.005l1.851.006c-.556-1.597-2.44-2.392-2.462-2.4l-.54-.223-.017-.583c-.015-.509-.117-3.035-.155-3.336-.048-.343-.162-.487-.509-.643-.282-.09-2.111-.24-5.05-.24-2.772 0-4.16.106-4.482.218s-.421.417-.479.822c-.031.22-.088 1.218-.146 2.955h10.811l.028.807H39.555l-.346.144a8.09 8.09 0 0 0-.741-.655c.128-.063.21-.099.21-.099.054-1.678.116-2.96.162-3.277.104-.74.498-1.29 1.03-1.53.428-.192 2.588-.285 4.822-.285 2.433 0 4.955.11 5.42.32.533.239.926.597 1.03 1.337.046.318.153 3.074.164 3.435 0 0 3.172 1.307 3.172 4.136l-2.761-.008v19.602zm-9.912-15.215s-.007 1.31-.062 1.719a1.222 1.222 0 0 1-.109.392c-.02.039-.054.06-.08.093a.683.683 0 0 1-.43.277 1.263 1.263 0 0 1-.327.013.88.88 0 0 1-.242-.063v10.392a7.049 7.049 0 0 1-.109 1.191c-.053.311-.12.617-.212.913-.001.006-.004.011-.006.017a6.96 6.96 0 0 1-.427 1.036c-.14.276-.291.546-.465.8l-.002.004c-.175.255-.37.494-.575.723l-.116.128a7.071 7.071 0 0 1-1.454 1.183l-.127.078a7.003 7.003 0 0 1-.861.432 4.124 4.124 0 0 0-.933 1.334c-.01.025-.028.061-.036.08-.225.546-.327 1.161-.327 1.161s-.385 2.91-.462 3.391c-.077.481-.386.732-.386.732-.332.281-.678.396-1.215.545-.963.249-.976.204-.976.204s-1.346.233-4.09.233-4.09-.233-4.09-.233-.012.045-.976-.204c-.536-.149-.883-.264-1.214-.545 0 0-.31-.251-.387-.732s-.461-3.39-.461-3.39-.103-.616-.327-1.161l-.044-.097a4.093 4.093 0 0 0-.98-1.366 7.014 7.014 0 0 1-.827-.431l-.126-.077a7.066 7.066 0 0 1-1.536-1.311 7.07 7.07 0 0 1-.567-.729l-.004-.007a7.032 7.032 0 0 1-.534-.966 6.948 6.948 0 0 1-.335-.855l-.005-.02a7.007 7.007 0 0 1-.237-1.112 7.06 7.06 0 0 1-.071-.949V23.121a7.045 7.045 0 0 1 .109-1.194c.053-.312.12-.619.213-.915l.01-.028a6.953 6.953 0 0 1 .424-1.023 7.01 7.01 0 0 1 .471-.809l.007-.008c.177-.257.374-.499.582-.73.033-.036.066-.073.1-.108.438-.466.939-.872 1.49-1.205l.094-.057c.284-.165.578-.314.885-.439a4.171 4.171 0 0 0 .87-1.315l.011-.025c.224-.545.327-1.16.327-1.16s.385-2.91.461-3.391.387-.732.387-.732c.331-.28.678-.396 1.214-.545.964-.249.976-.204.976-.204S25.032 9 27.776 9s4.09.233 4.09.233.013-.045.976.204c.537.149.883.264 1.215.545 0 0 .31.251.386.732.077.48.462 3.391.462 3.391s.102.615.327 1.16l.003.008c.095.23.345.788.835 1.296.63.245 1.216.58 1.742.986l.007.005c.525.407.991.886 1.383 1.424l.003.004a7 7 0 0 1 1.334 3.81.864.864 0 0 1 .37-.072c.073 0 .148.005.215.017.18.032.318.133.425.27.028.035.064.059.085.1.062.12.091.258.11.392.054.409.061 1.719.061 1.719zm-2.25-2.103c0-2.56-1.605-4.749-3.86-5.624a5.997 5.997 0 0 0-2.177-.413H22.091c-.767 0-1.5.15-2.176.413-2.255.875-3.86 3.063-3.86 5.624v14.927c0 2.626 1.689 4.86 4.035 5.688.627.221 1.299.348 2.001.348h11.427c.703 0 1.374-.127 2.002-.348 2.346-.829 4.035-3.062 4.035-5.688V23.12z" fill="#1d1d1f"/></svg>