<svg xmlns="http://www.w3.org/2000/svg" width="35" height="54"><path d="m0 0h35v54h-35z" fill="none"/><g fill="#1d1d1f"><path d="m17.5 16a17 17 0 0 0 0 34 17 17 0 0 0 0-34zm4.5 8.15a1.69 1.69 0 0 1 1.82 1.45h-.82a1 1 0 0 0 -1-.73c-.7 0-1.13.55-1.13 1.47s.43 1.51 1.13 1.51a.93.93 0 0 0 1-.71h.82a1.67 1.67 0 0 1 -1.82 1.42 2 2 0 0 1 -2-2.22 1.94 1.94 0 0 1 2-2.19zm-7.53.7c-.47 0-.79.18-.89.48h-.81c.09-.71.77-1.18 1.74-1.18s1.67.53 1.67 1.43v2.9h-.81v-.6h-.07a1.44 1.44 0 0 1 -1.28.67 1.28 1.28 0 0 1 -1.41-1.27c0-.76.57-1.2 1.58-1.26l1.12-.02v-.38c0-.51-.31-.77-.87-.77zm-7.35-.61.76 3.27h.06l.88-3.27h.8l.88 3.27h.06l.76-3.27h.84l-1.16 4.24h-.88l-.87-3.17h-.1l-.88 3.17h-.86l-1.17-4.24zm5.35 18.4c-3.3 0-5.36-2.31-5.36-6s2.06-6 5.36-6 5.35 2.32 5.35 6-2.09 6-5.38 6zm5.08-15.28v-2.44h-.68v-.67h.68v-1.08h.84v1.08h.92v.67h-.92v2.24c0 .45.18.65.6.65a1.67 1.67 0 0 0 .32 0v.67a3.08 3.08 0 0 1 -.46.05c-.96-.02-1.33-.35-1.33-1.17zm5.67 15.28c-2.54 0-4.23-1.31-4.37-3.31h1.45c.17 1.24 1.33 2 3 2s2.72-.83 2.72-2c0-1-.64-1.62-2.26-2l-1.28-.28c-2.33-.51-3.34-1.56-3.34-3.21 0-1.92 1.69-3.27 4.1-3.27s4 1.39 4.06 3.36h-1.48a2.36 2.36 0 0 0 -2.65-2c-1.45 0-2.57.71-2.57 1.89 0 .92.62 1.55 2.21 1.9l1.29.28c2.42.53 3.38 1.49 3.38 3.14 0 2.15-1.69 3.5-4.29 3.5zm5.26-14.16h-.88v-2.55c0-.69-.31-1-.9-1a1 1 0 0 0 -1.08 1.07v2.49h-.84v-5.92h.84v2.34h.06a1.32 1.32 0 0 1 1.3-.75 1.4 1.4 0 0 1 1.47 1.57z"/><path d="m12.44 32c-2.38 0-3.87 1.81-3.87 4.68s1.49 4.66 3.87 4.66 3.86-1.81 3.86-4.66-1.49-4.68-3.86-4.68z"/><path d="m13.42 27.25c0 .39.33.62.79.62a1 1 0 0 0 1.1-1v-.37l-1 .07c-.63.08-.89.29-.89.68z"/></g></svg>