<svg xmlns="http://www.w3.org/2000/svg" height="56" width="36"><path d="m0 0h36v56h-36z" fill="none"/><path d="m29 10h-22c-3.9 0-7 3.1-7 7v22c0 3.9 3.1 7 7 7h22c3.9 0 7-3.1 7-7v-22c0-3.9-3.1-7-7-7zm5 29c0 2.8-2.2 5-5 5h-22c-2.8 0-5-2.2-5-5v-22c0-2.8 2.2-5 5-5h22c2.8 0 5 2.2 5 5zm-9-20h-2c-.2-2.5-2.3-4.4-5-4.4s-4.8 1.9-5 4.4h-2c-1.9 0-3.5 1.6-3.5 3.5v13c0 1.9 1.6 3.5 3.5 3.5h14c1.9 0 3.5-1.6 3.5-3.5v-13c0-1.9-1.6-3.5-3.5-3.5zm-3.5 11.4c-.1.3-.3.6-.5.9-.2.4-.5.6-.6.8-.2.2-.5.3-.8.4-.2 0-.4 0-.7-.2-.2-.1-.5-.2-.8-.2-.2 0-.5 0-.8.2-.3.1-.5.2-.7.2-.3 0-.5-.1-.8-.4-.2-.2-.4-.4-.6-.8-.3-.4-.5-.9-.7-1.4s-.3-1.1-.3-1.6c0-.6.1-1.1.4-1.6.2-.3.5-.6.8-.8s.7-.3 1.1-.3c.2 0 .5 0 .8.2.3.1.6.2.7.2s.3 0 .7-.2c.4-.1.7-.2 1-.2.7 0 1.3.4 1.7.9-.7.4-1 1-1 1.7 0 .6.2 1.1.6 1.4.2.2.4.3.6.4 0 .1-.1.3-.2.4zm-3.5-5.1c0-.4.2-.8.5-1.2.2-.2.4-.3.6-.5.2-.1.5-.2.7-.2v.2c0 .5-.2.9-.5 1.3-.4.5-.8.7-1.3.6 0 0 0-.1 0-.2zm-3.8-6.3c.2-1.8 1.8-3.2 3.8-3.2s3.6 1.4 3.8 3.2h-7.5z"/></svg>