<svg xmlns="http://www.w3.org/2000/svg" height="56" width="42"><path d="m0 0h42v56h-42z" fill="none"/><path d="m12.7 39.8c-.1-.2-.2-.4-.2-.6 0-.6.2-1.2.5-1.8.4-.8.9-1.6 1.6-2.2.8-.8 1.7-1.4 2.6-1.9 1.2-.5 2.5-.8 3.8-.8 3.4 0 6.5 1.8 8 4.9.3.6.5 1.2.5 1.8 0 .2 0 .5-.2.6-.2.2-.4.3-.6.2h-15.4c-.2 0-.5 0-.6-.2zm6.2-9.3c-.6-.4-1.2-1-1.5-1.6-.4-.7-.6-1.5-.6-2.4 0-.8.2-1.6.6-2.3s.9-1.2 1.5-1.6c1.3-.8 3-.8 4.3 0 .6.4 1.2 1 1.5 1.6.4.7.6 1.5.6 2.3s-.2 1.6-.6 2.4c-.4.7-.9 1.2-1.5 1.6-1.3.8-3 .8-4.3 0zm18.1-18.5h-32c-2.8 0-5 2.2-5 5v22c0 2.8 2.2 5 5 5h32c2.8 0 5-2.2 5-5v-22c0-2.8-2.2-5-5-5zm-22.6 2.7c.8 0 1.4.6 1.4 1.4s-.6 1.4-1.4 1.4-1.4-.6-1.4-1.4.6-1.4 1.4-1.4zm-4.4 0c.8 0 1.4.6 1.4 1.4s-.6 1.4-1.4 1.4-1.4-.6-1.4-1.4.6-1.4 1.4-1.4zm-4.4 0c.8 0 1.4.6 1.4 1.4s-.6 1.4-1.4 1.4-1.4-.6-1.4-1.4.6-1.4 1.4-1.4zm34.4 24.3c0 1.7-1.3 3-3 3h-32c-1.7 0-3-1.3-3-3v-19h38z"/></svg>