<svg height="56" viewBox="0 0 46 56" width="46" xmlns="http://www.w3.org/2000/svg"><path d="m0 0h46v56h-46z" fill="none"/><path d="m13.5002 22.75c0 1.6569-1.3431 3-3 3s-3-1.3431-3-3 1.3431-3 3-3 3 1.3431 3 3zm23.901 0c0 1.2426-1.0073 2.25-2.25 2.25s-2.25-1.0074-2.25-2.25 1.0074-2.25 2.25-2.25 2.25 1.0073 2.25 2.25zm-1 0c0-.6893-.5607-1.25-1.25-1.25s-1.25.5607-1.25 1.25.5607 1.25 1.25 1.25 1.25-.5608 1.25-1.25zm-6.25-1c-.5523 0-1 .4477-1 1s.4477 1 1 1 1-.4478 1-1-.4477-1-1-1zm12.0989 1c0 3.7217-3.0278 6.75-6.75 6.75h-25c-3.7222 0-6.75-3.0283-6.75-6.75s3.0278-6.75 6.75-6.75h25c3.7222 0 6.75 3.0283 6.75 6.75zm-2 0c0-2.6191-2.1309-4.75-4.75-4.75h-25c-2.6191 0-4.75 2.1309-4.75 4.75s2.1309 4.75 4.75 4.75h25c2.6191 0 4.75-2.1309 4.75-4.75zm-2.2501-10.75h-30c-4.4111 0-8 3.5889-8 8v23.8672h2v-23.8672c0-3.3086 2.6914-6 6-6h30c3.3086 0 6 2.6914 6 6v23.8672h2v-23.8672c0-4.4111-3.5889-8-8-8z"/></svg>