<svg height="56" viewBox="0 0 46 56" width="46" xmlns="http://www.w3.org/2000/svg"><path d="m0 0h46v56h-46z" fill="none"/><path d="m45.9999 20v24h-2v-24c0-3.3086-2.6914-6-6-6h-30c-3.3086 0-6 2.6914-6 6v24s-1.9999 0-1.9999 0v-24c0-4.4111 3.5887-8 7.9999-8h30c4.4111 0 8 3.5889 8 8zm-15.4999-1.5c0 1.3807-1.1193 2.5-2.5 2.5h-10c-1.3807 0-2.5-1.1193-2.5-2.5s1.1193-2.5 2.5-2.5h10c1.3807 0 2.5 1.1193 2.5 2.5zm-1.625 0c0-.7594-.6156-1.375-1.375-1.375s-1.375.6156-1.375 1.375.6156 1.375 1.375 1.375 1.375-.6156 1.375-1.375z"/></svg>