<svg height="56" viewBox="0 0 40 56" width="40" xmlns="http://www.w3.org/2000/svg"><path d="m0 0h40v56h-40z" fill="none"/><path d="m19.9999 10.7c9.5393 0 17.3 7.7607 17.3 17.3s-7.7607 17.3-17.3 17.3-17.3-7.7607-17.3-17.3 7.7607-17.3 17.3-17.3m0-2.2c-10.7695 0-19.5 8.7305-19.5 19.5s8.7305 19.5 19.5 19.5 19.5-8.7305 19.5-19.5-8.7303-19.5-19.5-19.5zm-9.258 26.0799c2.4638 0 3.9499-1.4861 3.9499-3.7153 0-1.8576-.7431-2.718-2.7962-3.7935l-.7626-.4106c-1.1732-.6257-1.5448-1.0755-1.5448-1.8576 0-.6648.4693-1.1341 1.1537-1.1341.7235 0 1.095.4693 1.2515 1.3883.0391.2346.1564.352.3911.352h1.7208c.2346 0 .3911-.1369.3911-.3911-.0587-2.1118-1.2515-3.5979-3.7544-3.5979-2.4051 0-3.8326 1.4861-3.8326 3.6566 0 1.8185.7626 2.8549 2.6789 3.8521l.7626.4302c1.2319.6257 1.6621.9973 1.6621 1.7794 0 .8017-.3911 1.1928-1.2319 1.1928s-1.3101-.4889-1.4274-1.4274c-.0391-.2346-.1564-.352-.3715-.352h-1.8381c-.2542 0-.4106.176-.3911.4106.0587 2.2878 1.3883 3.6175 3.989 3.6175zm9.2686-13.1599c-2.9918 0-4.5366 2.3074-4.5366 6.6093 0 4.3215 1.5447 6.5506 4.5366 6.5506 2.9526 0 4.517-2.2291 4.517-6.5506 0-4.302-1.5644-6.6093-4.517-6.6093zm0 10.8134c-1.1929 0-1.7794-1.2515-1.7794-4.2041s.5865-4.2237 1.7794-4.2237c1.1536 0 1.7404 1.271 1.7404 4.2237s-.5867 4.2041-1.7404 4.2041zm9.3077 2.3465c2.4638 0 3.9304-1.4861 3.9304-3.7153 0-1.8576-.7235-2.718-2.7767-3.7935l-.7626-.4106c-1.1732-.6257-1.5448-1.0755-1.5448-1.8576 0-.6648.4693-1.1341 1.1537-1.1341.7039 0 1.095.4693 1.2515 1.3883.0391.2346.1369.352.352.352h1.7599c.2346 0 .3911-.1369.3911-.3911-.0782-2.1118-1.271-3.5979-3.7544-3.5979-2.4247 0-3.8521 1.4861-3.8521 3.6566 0 1.8185.7822 2.8353 2.6985 3.8521l.7431.4302c1.2515.6453 1.6621.9973 1.6621 1.7794 0 .8017-.3715 1.1928-1.2319 1.1928-.8408 0-1.3101-.4889-1.4079-1.4274-.0391-.2346-.176-.352-.3911-.352h-1.8576c-.2151 0-.3911.176-.3911.4106.0782 2.2878 1.4274 3.6175 4.0281 3.6175z"/></svg>