<svg height="56" viewBox="0 0 36 56" width="36" xmlns="http://www.w3.org/2000/svg"><path d="m.0001 0h36v56h-36z" fill="none"/><path d="m29 10h-22c-3.8599 0-7 3.1406-7 7v22c0 3.8594 3.1401 7 7 7h22c3.8599 0 7-3.1406 7-7v-22c0-3.8594-3.1401-7-7-7zm5 29c0 2.7568-2.2432 5-5 5h-22c-2.7568 0-5-2.2432-5-5v-22c0-2.7568 2.2432-5 5-5h22c2.7568 0 5 2.2432 5 5zm-22.7188-18.8789-2.75 7.75h1.4492l.6445-2.0039h2.8691l.6494 2.0039h1.4502l-2.75-7.75h-1.5625zm-.3066 4.6777 1.042-3.2383h.0908l1.043 3.2383zm6.9453-3.3144-1.9287 1.3652v-1.3057l2.0244-1.4229h1.3809v7.75h-1.3857v-6.3867h-.0908zm6.1602-1.5567c-1.6816 0-2.8789 1.1484-2.8789 2.7227v.0107c0 1.4717 1.041 2.5566 2.5293 2.5566 1.0635 0 1.7402-.542 2.0254-1.1553h.1074c0 .0596-.0059.1191-.0059.1777-.0586 1.4824-.5801 2.6855-1.8105 2.6855-.6816 0-1.1602-.3545-1.3633-.8965l-.0166-.0547h-1.3643l.0107.0596c.2471 1.1865 1.3105 2.0303 2.7334 2.0303 1.9502 0 3.127-1.5469 3.127-4.1572v-.0107c0-2.793-1.4395-3.9688-3.0938-3.9688zm1.541 2.7168c0 .876-.6719 1.5098-1.5469 1.5098-.8809 0-1.5195-.6445-1.5195-1.541v-.0117c0-.8643.6816-1.5469 1.5352-1.5469.8594 0 1.5312.6934 1.5312 1.5801v.0098zm-12.522 9.1875h-2.1631v5.6367h1.0039v-1.8633h1.1592c1.1367 0 1.9111-.7578 1.9111-1.8828v-.0078c0-1.1289-.7744-1.8828-1.9111-1.8828zm.8916 1.8946c0 .6758-.4209 1.0664-1.1406 1.0664h-.9102v-2.1367h.9102c.7197 0 1.1406.3867 1.1406 1.0625zm5.8242-.1289v-.0078c0-1.0898-.7314-1.7578-1.9297-1.7578h-2.2412v5.6367h1.0039v-2.1094h1.0859l1.1045 2.1094h1.1445l-1.2256-2.2617c.6533-.2383 1.0576-.8516 1.0576-1.6094zm-2.0351.9648h-1.1318v-1.9141h1.1133c.6299 0 1.0264.3594 1.0264.9492v.0078c0 .6055-.373.957-1.0078.957zm5.248-2.8281c-1.6338 0-2.665 1.1211-2.665 2.9102v.0078c0 1.793 1.0234 2.9141 2.665 2.9141s2.6611-1.1211 2.6611-2.9141v-.0078c0-1.7891-1.0234-2.9102-2.6611-2.9102zm1.6416 2.9179c0 1.2422-.626 2.0391-1.6416 2.0391-1.0039 0-1.6416-.7852-1.6416-2.0391v-.0078c0-1.2539.6416-2.0352 1.6416-2.0352 1.0039 0 1.6416.7852 1.6416 2.0352z"/></svg>