<svg height="56" viewBox="0 0 36 56" width="36" xmlns="http://www.w3.org/2000/svg"><path d="m.0001 0h36v56h-36z" fill="none"/><path d="m29 10h-22c-3.8599 0-7 3.1406-7 7v22c0 3.8594 3.1401 7 7 7h22c3.8599 0 7-3.1406 7-7v-22c0-3.8594-3.1401-7-7-7zm5 29c0 2.7568-2.2432 5-5 5h-22c-2.7568 0-5-2.2432-5-5v-22c0-2.7568 2.2432-5 5-5h22c2.7568 0 5 2.2432 5 5zm-22.7427-14.876-2.75 7.751h1.4492l.6445-2.0039h2.8691l.6494 2.0039h1.4502l-2.75-7.751h-1.5625zm-.3066 4.6787 1.042-3.2393h.0908l1.043 3.2393zm7.041-4.6787h1.3809v7.751h-1.3857v-6.3867h-.0908l-1.9287 1.3643v-1.3047l2.0244-1.4238zm6.0645-.1933c-1.6816 0-2.8789 1.1494-2.8789 2.7236v.0107c0 1.4717 1.041 2.5566 2.5293 2.5566 1.0635 0 1.7402-.543 2.0254-1.1553h.1074c0 .0596-.0059.1182-.0059.1777-.0586 1.4824-.5801 2.6855-1.8105 2.6855-.6816 0-1.1602-.3545-1.3633-.8975l-.0166-.0537h-1.3643l.0107.0596c.2471 1.1865 1.3105 2.0303 2.7334 2.0303 1.9502 0 3.127-1.5469 3.127-4.1572v-.0107c0-2.793-1.4395-3.9697-3.0938-3.9697zm1.541 2.7177c0 .876-.6719 1.5098-1.5469 1.5098-.8809 0-1.5195-.6445-1.5195-1.542v-.0107c0-.8643.6816-1.5469 1.5352-1.5469.8594 0 1.5312.6934 1.5312 1.5791z"/></svg>