<svg height="56" viewBox="0 0 40 56" width="40" xmlns="http://www.w3.org/2000/svg"><path d="m0 0h40v56h-40z" fill="none"/><path d="m40 21v23c0 .5527-.4478 1-1 1s-1-.4473-1-1v-23c0-3.8594-3.1401-7-7-7h-22c-3.8599 0-7 3.1406-7 7v23c0 .5527-.4478 1-1 1s-1-.4473-1-1v-23c0-4.9629 4.0376-9 9-9h22c4.9624 0 9 4.0371 9 9zm-29.6249 4.25c1.5878 0 2.875-1.2872 2.875-2.875s-1.2872-2.875-2.875-2.875-2.875 1.2872-2.875 2.875 1.2872 2.875 2.875 2.875zm0 1.5c-1.5878 0-2.875 1.2872-2.875 2.875s1.2872 2.875 2.875 2.875 2.875-1.2872 2.875-2.875-1.2872-2.875-2.875-2.875zm10.75-.75c0 1.0355-.8395 1.875-1.875 1.875s-1.875-.8395-1.875-1.875.8395-1.875 1.875-1.875 1.875.8395 1.875 1.875zm-1 0c0-.4825-.3925-.875-.875-.875s-.875.3925-.875.875.3925.875.875.875.875-.3925.875-.875zm-7.625-.125c0 .4142.3358.75.75.75s.75-.3358.75-.75-.3358-.75-.75-.75-.75.3358-.75.75zm4.1316-3.5592v7.3684c0 3.4881-2.8277 6.3158-6.3158 6.3158s-6.3158-2.8277-6.3158-6.3158v-7.3684c0-3.4881 2.8277-6.3158 6.3158-6.3158s6.3158 2.8277 6.3158 6.3158zm-2 0c0-2.3798-1.936-4.3158-4.3158-4.3158s-4.3158 1.936-4.3158 4.3158v7.3684c0 2.3798 1.9361 4.3158 4.3158 4.3158s4.3158-1.936 4.3158-4.3158z"/></svg>