<svg id="Outlined" xmlns="http://www.w3.org/2000/svg" width="46" height="56" viewBox="0 0 46 56"><g id="battery.100percent_elevated_np"><rect id="box_" width="46" height="56" fill="none"/><path id="art_" d="M38.5,23v10c0,1.9297-1.5703,3.5-3.5,3.5H7c-1.9297,0-3.5-1.5703-3.5-3.5v-10c0-1.9297,1.5703-3.5,3.5-3.5h28c1.9297,0,3.5,1.5703,3.5,3.5Zm3.5,0v10c0,3.8594-3.1406,7-7,7H7c-3.8594,0-7-3.1406-7-7v-10c0-3.8594,3.1406-7,7-7h28c3.8594,0,7,3.1406,7,7Zm-2,0c0-2.7568-2.2432-5-5-5H7c-2.7568,0-5,2.2432-5,5v10c0,2.7568,2.2432,5,5,5h28c2.7568,0,5-2.2432,5-5v-10Zm3.4953,8.5c1.0636-.0716,2.5-1.4373,2.5-3.5071,0-2.0556-1.4364-3.4354-2.5-3.4929v7Z"/></g></svg>