<svg height="56" viewBox="0 0 46 56" width="46" xmlns="http://www.w3.org/2000/svg"><path d="m0 0h46v56h-46z" fill="none"/><path d="m21.0001 26.6428c0 1.6569-1.3431 3-3 3s-3-1.3431-3-3 1.3431-3 3-3 3 1.3431 3 3zm-10.5 1.0981c-1.6569 0-3 1.3431-3 3s1.3431 3 3 3 3-1.3432 3-3-1.3431-3-3-3zm0-8.0384c-1.6569 0-3 1.3431-3 3s1.3431 3 3 3 3-1.3431 3-3-1.3431-3-3-3zm31.4999.5475v12.4434c0 2.3594-1.9614 4.3066-4.3721 4.3066h-29.2558c-2.4106 0-4.3721-1.9473-4.3721-4.3066v-12.4434c0-2.3594 1.9614-4.25 4.3721-4.25h29.2559c2.4106 0 4.3721 1.8906 4.3721 4.25zm-2 0c0-1.2559-1.064-2.25-2.3721-2.25h-29.2558c-1.3081 0-2.3721.9941-2.3721 2.25v12.4434c0 1.2559 1.064 2.3066 2.3721 2.3066h29.2559c1.3081 0 2.3721-1.0508 2.3721-2.3066v-12.4434zm-4.8489 8.9717c-.9648 0-1.75.785-1.75 1.75s.7852 1.75 1.75 1.75 1.75-.785 1.75-1.75-.7852-1.75-1.75-1.75zm2.25-6.5c0 1.2426-1.0073 2.25-2.25 2.25s-2.25-1.0074-2.25-2.25 1.0074-2.25 2.25-2.25 2.25 1.0073 2.25 2.25zm-1 0c0-.6893-.5607-1.25-1.25-1.25s-1.25.5607-1.25 1.25.5607 1.25 1.25 1.25 1.25-.5608 1.25-1.25zm1.5989-10.7217h-30c-4.4111 0-8 3.5889-8 8v24h2v-24c0-3.3086 2.6914-6 6-6h30c3.3086 0 6 2.6914 6 6v24h2v-24c0-4.4111-3.5889-8-8-8z"/></svg>