<svg height="56" viewBox="0 0 40 56" width="40" xmlns="http://www.w3.org/2000/svg"><path d="m0 0h40v56h-40z" fill="none"/><path d="m40 21v23c0 .5527-.4478 1-1 1s-1-.4473-1-1v-23c0-3.8594-3.1401-7-7-7h-22c-3.8599 0-7 3.1406-7 7v23c0 .5527-.4478 1-1 1s-1-.4473-1-1v-23c0-4.9629 4.0376-9 9-9h22c4.9624 0 9 4.0371 9 9zm-3.9999 1v8c0 3.3137-2.6863 6-6 6h-20c-3.3137 0-6-2.6863-6-6v-8c0-3.3137 2.6863-6 6-6h20c3.3137 0 6 2.6863 6 6zm-2 0c0-2.2056-1.7944-4-4-4h-20c-2.2056 0-4 1.7944-4 4v8c0 2.2056 1.7944 4 4 4h20c2.2056 0 4-1.7944 4-4zm-23.625-2.5c-1.5878 0-2.875 1.2872-2.875 2.875s1.2872 2.875 2.875 2.875 2.875-1.2872 2.875-2.875-1.2872-2.875-2.875-2.875zm0 7.25c-1.5878 0-2.875 1.2872-2.875 2.875s1.2872 2.875 2.875 2.875 2.875-1.2872 2.875-2.875-1.2872-2.875-2.875-2.875zm6.25-3.625c-1.5878 0-2.875 1.2872-2.875 2.875s1.2872 2.875 2.875 2.875 2.875-1.2872 2.875-2.875-1.2872-2.875-2.875-2.875zm13.75 5.25c-.6904 0-1.25.5596-1.25 1.25s.5596 1.25 1.25 1.25 1.25-.5596 1.25-1.25-.5596-1.25-1.25-1.25zm1.625-6c0 .8975-.7275 1.625-1.625 1.625s-1.625-.7275-1.625-1.625.7275-1.625 1.625-1.625 1.625.7275 1.625 1.625zm-1 0c0-.3446-.2804-.625-.625-.625s-.625.2804-.625.625.2804.625.625.625.625-.2804.625-.625z"/></svg>