<svg height="56" viewBox="0 0 40 56" width="40" xmlns="http://www.w3.org/2000/svg"><path d="m0 0h40v56h-40z" fill="none"/><path d="m40 21v23c0 .5527-.4478 1-1 1s-1-.4473-1-1v-23c0-3.8594-3.1401-7-7-7h-22c-3.8599 0-7 3.1406-7 7v23c0 .5527-.4478 1-1 1s-1-.4473-1-1v-23c0-4.9629 4.0376-9 9-9h22c4.9624 0 9 4.0371 9 9zm-30.6249-2.25c-1.4498 0-2.625 1.1752-2.625 2.625s1.1752 2.625 2.625 2.625 2.625-1.1753 2.625-2.625-1.1752-2.625-2.625-2.625zm9.875 2.625c0 .6904-.5596 1.25-1.25 1.25s-1.25-.5596-1.25-1.25.5596-1.25 1.25-1.25 1.25.5596 1.25 1.25zm-.8 0c0-.2481-.2018-.45-.45-.45s-.45.2019-.45.45.2019.45.45.45.45-.2019.45-.45zm-4.075-.75c-.4142 0-.75.3358-.75.75s.3358.75.75.75.75-.3358.75-.75-.3358-.75-.75-.75z"/></svg>