<svg height="56" viewBox="0 0 46 56" width="46" xmlns="http://www.w3.org/2000/svg"><path d="m0 0h46v56h-46z" fill="none"/><path d="m7.75 22.7217c0-1.6569 1.3431-3 3-3s3 1.3431 3 3-1.3431 3-3 3-3-1.3431-3-3zm3 5c-1.6569 0-3 1.3431-3 3s1.3431 3 3 3 3-1.3431 3-3-1.3431-3-3-3zm12.25-1c0 1.2426-1.0074 2.25-2.25 2.25s-2.25-1.0074-2.25-2.25 1.0074-2.25 2.25-2.25 2.25 1.0073 2.25 2.25zm-1 0c0-.6893-.5607-1.25-1.25-1.25s-1.25.5607-1.25 1.25.5607 1.25 1.25 1.25 1.25-.5608 1.25-1.25zm-8.75 0c0 .4142.3358.75.75.75s.75-.3358.75-.75-.3358-.75-.75-.75-.75.3358-.75.75zm4.2499-4v8c0 3.7217-3.0278 6.75-6.75 6.75s-6.75-3.0283-6.75-6.75v-8c0-3.7217 3.0278-6.75 6.75-6.75s6.75 3.0283 6.75 6.75zm-2 0c0-2.6191-2.1309-4.75-4.75-4.75s-4.75 2.1309-4.75 4.75v8c0 2.6191 2.1309 4.75 4.75 4.75s4.75-2.1309 4.75-4.75zm22.5001-10.7217h-30c-4.4111 0-8 3.5889-8 8v24h2v-24c0-3.3086 2.6914-6 6-6h30c3.3086 0 6 2.6914 6 6v24h2v-24c0-4.4111-3.5889-8-8-8z"/></svg>