<svg height="56" viewBox="0 0 40 56" width="40" xmlns="http://www.w3.org/2000/svg"><path d="m0 0h40v56h-40z" fill="none" transform="matrix(-1 0 0 -1 40 56)"/><path d="m31 12h-22c-4.9624 0-9 4.0371-9 9v23c0 .5527.4478 1 1 1s1-.4473 1-1v-23c0-3.8594 3.1401-7 7-7h2.5001s1 0 1 1.1748v.3252c0 1.3807 1.1193 2.5 2.5 2.5h10c1.3807 0 2.5-1.1193 2.5-2.5v-.1919c0-1.3081 1-1.3081 1-1.3081h2.4999c3.8599 0 7 3.1406 7 7v23c0 .5527.4478 1 1 1s1-.4473 1-1v-23c0-4.9629-4.0376-9-9-9zm-15.7499 4.5c-.5523 0-1-.4478-1-1s.4477-1 1-1 1 .4477 1 1-.4477 1-1 1z"/></svg>