<svg height="56" viewBox="0 0 42 56" width="42" xmlns="http://www.w3.org/2000/svg"><path d="m0 0h42v56h-42z" fill="none"/><path d="m41.5 27.8373c.0024.7949-.4272 1.5273-1.1216 1.9121l-23.042 13.1061c-.7754.4297-1.626.6445-2.4756.6445s-1.6987-.2139-2.4727-.6426l-10.7661-6.0924c-.6943-.3848-1.1245-1.1172-1.1221-1.9121s.437-1.5244 1.1343-1.9053l2.7117-1.2168 2.093 1.1311-3.8438 1.8396c-.064.0352-.0947.0879-.0952.1582 0 .0684.0298.1201.0884.1543l10.7598 6.0885c.9512.5264 2.0762.5273 3.0166.0049l23.0425-13.1061c.0625-.0352.0933-.0879.0933-.1582-.0005-.0703-.0312-.1221-.0918-.1553l-4.0571-1.8706 2.0625-1.1747 2.939 1.2826c.7104.3877 1.1445 1.1172 1.147 1.9121zm-39-.7959c.002-.6641.3652-1.2744.9473-1.5918l20.9829-12.3961c1.3511-.7383 2.9536-.7363 4.2949-.0039l9.814 5.442c.5918.3232.9551.9326.957 1.5967.0024.6631-.3564 1.2754-.9365 1.5977l-21.5405 12.2457c-.6836.3789-1.4312.5684-2.1782.5684-.7446 0-1.4878-.1885-2.166-.5635l-9.2378-5.2975c-.5801-.3213-.9395-.9336-.937-1.5977zm1.5.0049c-.0005.0703.0205.1992.1606.2793l9.2339 5.2946c.9092.5049 1.9868.5049 2.8901.0039l21.54-12.2457c.1509-.084.1719-.2148.1714-.2852 0-.0703-.022-.2012-.1655-.2793l-9.814-5.442c-.9023-.4932-1.9673-.4941-2.8599-.0068l-20.9823 12.396c-.1523.084-.1743.2139-.1743.2852z"/></svg>