<svg height="56" viewBox="0 0 39.9999 56" width="39.9999" xmlns="http://www.w3.org/2000/svg"><path d="m0 0h39.9999v56h-39.9999z" fill="none"/><path d="m39.9998 21v23c0 .5527-.4478 1-1 1s-1-.4473-1-1v-23c0-3.8594-3.1401-7-7-7h-21.9999c-3.8599 0-7 3.1406-7 7v23c0 .5527-.4478 1-1 1s-1-.4473-1-1v-23c0-4.9629 4.0376-9 9-9h21.9999c4.9624 0 9 4.0371 9 9zm-29.6248-1.375c-1.5188 0-2.75 1.2312-2.75 2.75s1.2312 2.75 2.75 2.75 2.75-1.2313 2.75-2.75-1.2312-2.75-2.75-2.75zm21.6249 2.75c0 .8975-.7275 1.625-1.625 1.625s-1.625-.7275-1.625-1.625.7275-1.625 1.625-1.625 1.625.7275 1.625 1.625zm-1 0c0-.3446-.2803-.625-.625-.625s-.625.2804-.625.625.2804.625.625.625.625-.2804.625-.625zm-4.375-.75c-.4142 0-.75.3358-.75.75s.3358.75.75.75.75-.3358.75-.75-.3358-.75-.75-.75zm9.375.775c0 3.3137-2.6863 6-6 6h-19.9999c-3.3137 0-6-2.6863-6-6s2.6863-6.0001 6-6.0001h19.9999c3.3137 0 6 2.6863 6 6.0001zm-2 0c0-2.2056-1.7944-4-4-4h-19.9999c-2.2056 0-4 1.7944-4 4s1.7944 4 4 4h19.9999c2.2056 0 4-1.7944 4-4z"/></svg>