<svg width="1127" height="318" viewBox="0 0 1127 318" fill="none" xmlns="http://www.w3.org/2000/svg">
<path d="M0 147.12V0L42.1189 21.0595V147.12C42.1189 176.188 65.5513 199.62 94.6193 199.62V241.739C42.4155 241.739 0 199.323 0 147.12Z" fill="white"/>
<path d="M146.42 0C157.988 0 167.479 9.49159 167.479 21.0595C167.479 32.6273 157.988 42.1189 146.42 42.1189C134.852 42.1189 125.36 32.6273 125.36 21.0595C125.36 9.49159 134.852 0 146.42 0ZM125.36 73.5598L167.479 52.5004V241.739H125.36V73.5598Z" fill="white"/>
<path d="M185.823 147.12C185.823 94.9159 228.238 52.5004 280.442 52.5004C332.646 52.5004 375.061 94.9159 375.061 147.12C375.061 199.323 332.646 241.739 280.442 241.739C260.866 241.739 242.772 235.807 227.942 226.018V295.426L185.823 316.485V147.12ZM280.442 94.6193C251.374 94.6193 227.942 118.348 227.942 147.12C227.942 176.188 251.374 199.917 280.442 199.917C309.51 199.917 332.943 176.188 332.943 147.12C332.943 118.348 309.51 94.6193 280.442 94.6193Z" fill="white"/>
<path d="M577.154 147.12V252.12L530.586 228.688C516.052 237.29 499.442 241.739 482.535 241.739C430.331 241.739 387.915 199.323 387.915 147.12C387.915 94.9159 430.331 52.5004 482.535 52.5004C534.738 52.5004 577.154 94.9159 577.154 147.12ZM482.535 94.6193C453.467 94.6193 430.034 118.052 430.034 147.12C430.034 176.188 453.467 199.62 482.535 199.62C511.603 199.62 535.035 176.188 535.035 147.12C535.035 118.052 511.603 94.6193 482.535 94.6193Z" fill="white"/>
<path d="M1005.86 181.527H1047.98C1047.98 191.611 1055.99 199.62 1066.08 199.62C1076.16 199.62 1084.17 191.611 1084.17 181.527C1084.17 175.001 1080.61 169.959 1075.86 166.103C1061.63 155.425 1013.28 145.34 1013.28 105.297C1013.28 76.2293 1037.01 52.5004 1066.08 52.5004C1095.14 52.5004 1118.87 76.2293 1118.87 105.297H1077.05C1077.05 99.3651 1072.01 94.3227 1066.08 94.3227C1060.14 94.3227 1055.4 99.3651 1055.4 105.297C1055.4 109.45 1057.47 113.009 1061.03 114.789C1090.4 130.509 1126.29 137.925 1126.29 181.527C1126.29 214.747 1099.3 241.739 1066.08 241.739C1032.85 241.739 1005.86 214.747 1005.86 181.527Z" fill="white"/>
<path d="M736.746 5.5H784C784 34.2307 771.525 58.803 751.867 76.5706C771.525 94.3383 784 118.911 784 147.263C784 199.81 742.038 241.772 689.491 241.772C636.944 241.772 594.982 199.81 594.982 147.263C594.982 94.7163 636.944 52.7544 689.491 52.7544C715.198 52.7544 736.746 31.2064 736.746 5.5ZM642.237 147.263C642.237 172.97 663.785 194.518 689.491 194.518C715.198 194.518 736.746 172.97 736.746 147.263C736.746 121.557 715.198 100.009 689.491 100.009C663.785 100.009 642.237 121.557 642.237 147.263ZM736.746 317.379H689.491C689.491 264.832 731.453 222.87 784 222.87V270.125C758.294 270.125 736.746 291.673 736.746 317.379Z" fill="white"/>
<path d="M665 282C665 301.606 649.106 317.5 629.5 317.5C609.894 317.5 594 301.606 594 282C594 262.394 609.894 246.5 629.5 246.5C649.106 246.5 665 262.394 665 282Z" fill="white"/>
<path d="M989.863 147.374V252.374L943.295 228.942C928.761 237.544 912.15 241.993 895.244 241.993C843.04 241.993 800.624 199.577 800.624 147.374C800.624 95.17 843.04 52.7544 895.244 52.7544C947.447 52.7544 989.863 95.17 989.863 147.374ZM895.244 94.8734C866.176 94.8734 842.743 118.306 842.743 147.374C842.743 176.442 866.176 199.874 895.244 199.874C924.312 199.874 947.744 176.442 947.744 147.374C947.744 118.306 924.312 94.8734 895.244 94.8734Z" fill="white"/>
</svg>
