<svg xmlns="http://www.w3.org/2000/svg" height="56" width="46"><path d="m0 0h46v56h-46z" fill="none"/><path d="m14.5 24.1589c0 .0348-.2416.7489-.7371 1.463-.4259.668-.8984 1.313-1.6013 1.313-.7371 0-.8978-.4265-1.7158-.4265s-1.0826.4377-1.7277.4377c-.6565 0-1.1057-.6102-1.6124-1.3361-.6335-.8635-1.1057-2.1995-1.1057-3.4553 0-2.0271 1.313-3.098 2.6145-3.098.691 0 1.2784.4377 1.6931.4377.4258 0 1.0596-.4607 1.854-.4607.2883 0 1.3478.023 2.0389 1.0248-.0343.0461-1.1057.645-1.1057 1.9928 0 1.5203 1.3703 2.0963 1.4052 2.1075zm-4.1003-5.2521c.4607 0 1.0248-.2994 1.3709-.7484.3337-.3804.5753-.9214.5753-1.4399 0-.0922 0-.1495-.0225-.2186-.5528.0112-1.1635.3455-1.5551.7944-.2995.3343-.5644.8641-.5644 1.3939 0 .0921.0115.1843.0231.2073.0345 0 .0806.0112.1727.0112zm35.6003-1.9069v22c0 2.7614-2.2386 5-5 5h-36c-2.7614.0001-5-2.2385-5-4.9999v-22c0-2.7614 2.2386-5 5-5h36c2.7614 0 5 2.2386 5 5zm-2 0c0-1.6542-1.3458-3-3-3h-36c-1.6542 0-3 1.3458-3 3v22c0 1.6542 1.3458 3 3 3h36c1.6542 0 3-1.3458 3-3z"/></svg>