<svg xmlns="http://www.w3.org/2000/svg" height="56" width="46"><path d="m0 0h46v56h-46z" fill="none"/><path d="m44.064 20.6426-16.57-7.5307a10.46 10.46 0 0 0 -4.3963-1.1119c-.0328 0-.0655 0-.0977.0006s-.0649-.0006-.0977-.0006a10.4613 10.4613 0 0 0 -4.396 1.1119l-16.5869 7.5307a2.273 2.273 0 0 0 0 4.2132l5.0806 2.313v8.1543c0 2.0883 1.4287 4.1717 4 5.7761v2.4413h.127a1.5988 1.5988 0 0 0 -1.252 1.5595v4.8a1.6 1.6 0 0 0 1.6 1.6h1.05a1.6 1.6 0 0 0 1.6-1.6v-4.8a1.5988 1.5988 0 0 0 -1.252-1.5595h.127v-1.4a25.1411 25.1411 0 0 0 9.9946 1.8595h.0108c9.8818 0 15.9946-4.3384 15.9946-8.6769v-8.1548l5.064-2.3125a2.2632 2.2632 0 0 0 0-4.2132zm-35.064 14.6805v-7.2491l.4028.1822 1.42.6469.1772.08v9.6641a4.6469 4.6469 0 0 1 -2-3.3241zm28 0c0 2.7992-4.8633 6.6769-14.0054 6.6769a21.9859 21.9859 0 0 1 -9.9946-2.0714v-10.0386l5.5063 2.4967a10.1047 10.1047 0 0 0 4.3082 1.1133c.062 0 .1235-.0008.1855-.0023.062.0015.1235.0023.1855.0023a10.1047 10.1047 0 0 0 4.3082-1.1136l9.0869-4.13.4194-.1883zm6.2334-12.2866-4.2334 1.9335-1.1665.5327-.8335.3735-1.2471.5592-9.0929 4.1333a8.2115 8.2115 0 0 1 -3.4742.9313l-.1372-.0016-.0486-.0013-.0483.0013-.1372.0016a8.23 8.23 0 0 1 -3.4825-.9351l-5.124-2.3235 7.58-3.8079a6.3805 6.3805 0 0 0 1.212.1186c1.7588 0 3.1982-.6762 3.4355-1.5521a.9783.9783 0 0 0 .0484-.25c0-.8525-1.148-1.5626-2.6851-1.75a6.15 6.15 0 0 0 -1.5976 0c-1.5371.1874-2.6851.8975-2.6851 1.75a.9783.9783 0 0 0 .0484.25 1.1186 1.1186 0 0 0 .1088.2573l-7.8076 3.9227-.2138-.0969-1.4253-.6492-1.2266-.5547-.8232-.3722-1.1768-.5357-4.2432-1.9313c-.2568-.119-.2568-.2438-.2568-.2909 0-.1495.1611-.2461.2461-.2854l16.5806-7.5276a8.5757 8.5757 0 0 1 3.5756-.9361h.1216.0738a8.5614 8.5614 0 0 1 3.5683.9327l16.5723 7.5315c.12.0541.2617.1474.2617.2849 0 .0456 0 .1664-.2666.2874z"/></svg>