<svg height="56" viewBox="0 0 70 56" width="70" xmlns="http://www.w3.org/2000/svg"><path d="m0 0h70v56h-70z" fill="none"/><path d="m56 15.5c2.5502 0 4.625 2.3551 4.625 5.25s-2.0748 5.25-4.625 5.25-4.625-2.3551-4.625-5.25 2.0748-5.25 4.625-5.25m0 17c7.2799 0 11.75 4.9279 11.75 8.4609 0 .5109 0 1.0391-1.9327 1.0391h-19.6346c-1.9327 0-1.9327-.5283-1.9327-1.0391 0-3.533 4.4701-8.4609 11.75-8.4609m0-19c-3.6589 0-6.625 3.2459-6.625 7.25s2.9661 7.25 6.625 7.25 6.625-3.2459 6.625-7.25-2.9661-7.25-6.625-7.25zm0 17c-8.4008 0-13.75 5.7798-13.75 10.4609 0 2.0166 1.3228 3.0391 3.9327 3.0391h19.6346c2.6099 0 3.9327-1.0225 3.9327-3.0391 0-4.6811-5.3492-10.4609-13.75-10.4609zm-42-15c2.5502 0 4.625 2.3551 4.625 5.25s-2.0748 5.25-4.625 5.25-4.625-2.3551-4.625-5.25 2.0748-5.25 4.625-5.25m0 17c7.2799 0 11.75 4.9279 11.75 8.4609 0 .5109 0 1.0391-1.9327 1.0391h-19.6346c-1.9327 0-1.9327-.5283-1.9327-1.0391 0-3.533 4.4701-8.4609 11.75-8.4609m0-19c-3.6589 0-6.625 3.2459-6.625 7.25s2.9661 7.25 6.625 7.25 6.625-3.2459 6.625-7.25-2.9661-7.25-6.625-7.25zm0 17c-8.4008 0-13.75 5.7798-13.75 10.4609 0 2.0166 1.3228 3.0391 3.9327 3.0391h19.6346c2.6099 0 3.9327-1.0225 3.9327-3.0391 0-4.6811-5.3492-10.4609-13.75-10.4609zm15.25-2.5093c0-1.2593-.9775-2.2407-2.25-2.2407s-2.25.9815-2.25 2.2407c0 1.2593.9775 2.2593 2.25 2.2593s2.25-1 2.25-2.2593zm16 0c0-1.2593-.9775-2.2407-2.25-2.2407s-2.25.9815-2.25 2.2407c0 1.2593.9775 2.2593 2.25 2.2593s2.25-1 2.25-2.2593zm-8 0c0-1.2593-.9775-2.2407-2.25-2.2407s-2.25.9815-2.25 2.2407c0 1.2593.9775 2.2593 2.25 2.2593s2.25-1 2.25-2.2593z"/></svg>