<svg xmlns="http://www.w3.org/2000/svg" viewBox="0 0 36 56">
    <path fill="#fff" d="m31 12c1.6542 0 3 1.3458 3 3v26c0 1.6542-1.3458 3-3 3h-26c-1.6542 0-3-1.3458-3-3v-26c0-1.6542 1.3458-3 3-3zm0-2h-26c-2.7614 0-5 2.2386-5 5v26c0 2.7614 2.2386 5 5 5h26c2.7614 0 5-2.2386 5-5v-26c0-2.7614-2.2386-5-5-5zm-18.3461 9.0845c-2.1709 0-4.5084.9561-5.5167 2.6832-.1007.1893-.1372.2825-.1372.5611v14.2297c0 .307.2146.526.5408.526.1966 0 .342-.0598.4912-.2016 1.1685-1.1186 2.8379-1.7326 4.7424-1.7326 1.4957 0 2.9194.543 4.076 1.5595.1203.0922.2052.1457.3255.1457.1858 0 .324-.1518.324-.3523v-14.7594c0-.2216-.0207-.3227-.1541-.5203-1.1243-1.3911-2.7926-2.139-4.692-2.139zm10.6863-.0845c-1.8805 0-3.5556.7479-4.6859 2.139-.1337.1976-.1543.2987-.1543.5203v14.7594c0 .2004.1384.3523.3242.3523.1254 0 .2153-.0535.3467-.1457 1.1468-1.0165 2.5623-1.5595 4.0595-1.5595 1.9322 0 3.6081.614 4.7473 1.7326.1494.1417.2949.2016.4917.2016.3266 0 .5306-.219.5306-.526v-14.2297c0-.2787-.0257-.3829-.1266-.5611-1.0094-1.7271-3.3541-2.6832-5.5333-2.6832z"/>
</svg>
